<svg id="SvgjsSvg1021" width="288" height="288" xmlns="http://www.w3.org/2000/svg" version="1.1" xmlns:xlink="http://www.w3.org/1999/xlink" xmlns:svgjs="http://svgjs.com/svgjs"><defs id="SvgjsDefs1022"></defs><g id="SvgjsG1023"><svg xmlns="http://www.w3.org/2000/svg" viewBox="0 0 200 200" width="288" height="288"><path fill="#e7fc00" d="M126.304 172.234a3.902 3.902 0 0 0-3.892-3.892H77.584a3.901 3.901 0 0 0-3.89 3.892 3.904 3.904 0 0 0 3.89 3.892h44.828a3.905 3.905 0 0 0 3.892-3.892zM100 33.63a3.902 3.902 0 0 0 3.892-3.892V4.683A3.905 3.905 0 0 0 100 .788a3.904 3.904 0 0 0-3.892 3.895v25.056A3.901 3.901 0 0 0 100 33.63zM133.58 42.628a3.904 3.904 0 0 0 5.316-1.425l12.529-21.699a3.902 3.902 0 0 0-1.426-5.315 3.901 3.901 0 0 0-5.315 1.425l-12.528 21.697a3.904 3.904 0 0 0 1.424 5.317zM158.162 67.214a3.907 3.907 0 0 0 5.316 1.425l21.701-12.534a3.898 3.898 0 0 0 1.425-5.312 3.9 3.9 0 0 0-5.316-1.425l-21.699 12.529a3.9 3.9 0 0 0-1.427 5.317zM167.16 100.792c0 2.143 1.754 3.895 3.891 3.892h25.058a3.902 3.902 0 0 0 3.892-3.892 3.904 3.904 0 0 0-3.892-3.89h-25.058a3.901 3.901 0 0 0-3.891 3.89zM66.418 42.628a3.904 3.904 0 0 0 1.427-5.317l-12.53-21.702a3.906 3.906 0 0 0-5.317-1.42 3.901 3.901 0 0 0-1.422 5.315l12.529 21.699a3.901 3.901 0 0 0 5.313 1.425zM41.836 67.214a3.898 3.898 0 0 0-1.422-5.317L18.712 49.365a3.91 3.91 0 0 0-5.318 1.425 3.907 3.907 0 0 0 1.427 5.315l21.702 12.529a3.903 3.903 0 0 0 5.313-1.42zM32.84 100.792a3.907 3.907 0 0 0-3.888-3.895H3.892A3.907 3.907 0 0 0 0 100.792a3.904 3.904 0 0 0 3.892 3.892h25.061c2.136 0 3.887-1.753 3.887-3.892zM126.304 182.92a3.901 3.901 0 0 0-3.892-3.891H77.584a3.901 3.901 0 0 0-3.89 3.891 3.9 3.9 0 0 0 3.89 3.89h44.828a3.901 3.901 0 0 0 3.892-3.89zM86.857 189.715c1.827 5.517 7.017 9.497 13.143 9.497s11.314-3.98 13.14-9.497H86.857zM100 46.002c-30.258 0-54.788 24.532-54.788 54.79 0 16.082 6.935 30.557 17.981 40.579a185.27 185.27 0 0 1 2.438 2.067c5.193 4.51 8.068 11.468 8.068 18.889h52.597c0-7.421 2.878-14.379 8.068-18.889.791-.687 2.417-2.055 2.441-2.067 11.044-10.022 17.979-24.497 17.979-40.579.002-30.258-24.526-54.79-54.784-54.79zm3.808 80.683v4.897a3.728 3.728 0 0 1-3.735 3.735h-.825a3.71 3.71 0 0 1-2.638-1.093 3.736 3.736 0 0 1-1.097-2.642v-4.301c-5.668-.254-11.169-1.776-14.382-3.641l2.536-9.902c3.556 1.949 8.547 3.726 14.05 3.726 4.82 0 8.122-1.861 8.122-5.25 0-3.215-2.706-5.242-8.972-7.358-9.053-3.047-15.231-7.278-15.231-15.489 0-7.447 5.249-13.288 14.302-15.064v-4.304a3.71 3.71 0 0 1 1.093-2.638 3.727 3.727 0 0 1 2.642-1.093h.823a3.734 3.734 0 0 1 3.735 3.731v3.714c5.669.254 9.479 1.438 12.271 2.793l-2.454 9.563c-2.199-.933-6.091-2.878-12.186-2.878-5.503 0-7.278 2.371-7.278 4.739 0 2.792 2.962 4.57 10.155 7.276 10.071 3.555 14.131 8.208 14.131 15.825 0 7.532-5.332 13.965-15.062 15.654z" class="color5E889E svgShape"></path></svg></g></svg>